<svg width="750" height="500" viewBox="0 0 750 500" fill="none" xmlns="http://www.w3.org/2000/svg">
<g clip-path="url(#clip0_2969_65)">
<path d="M151.601 418.504C151.601 418.504 19.3451 308.111 92.3181 196.559C160.242 92.725 303.832 127.464 371.722 199.03C439.612 270.596 582.009 152.186 664.661 240.541C730.067 310.461 658.712 435.371 539.596 451.149L151.601 418.504Z" stroke="#5F9E82" stroke-miterlimit="10" stroke-linecap="round" stroke-linejoin="round"/>
<path d="M251.112 276.229C276.534 276.094 303.15 287.806 319.343 312.783C327.618 325.548 340.516 329.861 356.47 329.641C372.398 329.421 391.475 324.684 412.245 319.26C453.856 308.393 502.353 294.751 546.797 308.471C591.163 322.166 607.863 355.837 611.065 389.058C612.667 405.676 610.887 422.173 607.496 435.972C604.136 449.644 599.206 460.612 594.465 466.428H104.172C104.101 466.328 104.005 466.194 103.888 466.024C103.609 465.623 103.204 465.027 102.703 464.256C101.7 462.714 100.31 460.473 98.7656 457.675C95.675 452.077 91.9706 444.263 89.502 435.393C84.5646 417.651 84.5871 395.771 104.239 378.835C124.039 361.771 139.685 356.081 153.354 348.973C160.188 345.418 166.522 341.511 172.585 335.65C178.648 329.791 184.423 321.997 190.168 310.688C201.516 288.349 225.682 276.364 251.112 276.229Z" fill="#A8D5BA" stroke="#5F9E82"/>
<path d="M133.065 274.78C139.076 272.408 147.569 272.012 159.042 274.66C181.851 279.924 198.741 301.347 209.164 328.176C219.553 354.918 223.456 386.893 220.42 413.15L203.902 427.473C203.817 427.486 203.693 427.507 203.533 427.53C203.199 427.579 202.707 427.645 202.078 427.719C200.818 427.865 199.007 428.037 196.808 428.133C192.408 428.325 186.465 428.219 180.282 427.024C167.915 424.636 154.677 417.929 150.737 400.653C146.743 383.143 146.752 369.874 145.46 357.989C144.169 346.106 141.577 335.698 132.352 324.137C123.262 312.744 118.63 297.683 121.886 286.867C123.506 281.488 127.076 277.144 133.065 274.78Z" fill="#87C699" stroke="#5F9E82"/>
<path d="M218.099 359.96C221.503 378.148 222.314 396.763 220.42 413.148L203.901 427.473C203.852 427.48 203.791 427.491 203.717 427.502C203.505 427.534 203.189 427.579 202.782 427.632C201.966 427.737 200.78 427.87 199.307 427.982C196.36 428.206 192.267 428.344 187.681 427.998C178.576 427.311 167.614 424.724 159.796 417.218C162.192 408.858 175.477 370.126 218.099 359.96Z" fill="#77AF86" stroke="#5F9E82"/>
<path d="M123.79 281.543C123.79 281.543 188.519 316.93 210.969 422.007" stroke="#5F9E82" stroke-miterlimit="10" stroke-linecap="round" stroke-linejoin="round"/>
<path d="M154.54 273.241L145.291 298.129" stroke="#5F9E82" stroke-miterlimit="10" stroke-linecap="round" stroke-linejoin="round"/>
<path d="M131.961 324.448L162.979 317.177" stroke="#5F9E82" stroke-miterlimit="10" stroke-linecap="round" stroke-linejoin="round"/>
<path d="M203.161 313.677L181.942 344.817" stroke="#5F9E82" stroke-miterlimit="10" stroke-linecap="round" stroke-linejoin="round"/>
<path d="M208.517 325.211L186.865 353.771" stroke="#5F9E82" stroke-miterlimit="10" stroke-linecap="round" stroke-linejoin="round"/>
<path d="M557.797 342.208C558.303 342.145 558.757 342.273 559.167 342.595C559.588 342.925 559.983 343.478 560.307 344.288C560.957 345.913 561.275 348.448 561.06 351.842C560.666 358.061 558.493 367.02 553.549 378.177C553.704 376.853 553.874 375.21 554.011 373.393C554.358 368.788 554.501 363.018 553.662 358.474C552.923 354.474 552.792 350.493 553.459 347.457C554.11 344.497 555.468 342.607 557.589 342.238L557.797 342.208Z" fill="#5F9E82" stroke="#5F9E82"/>
<path d="M581.406 359.57C584.042 359.635 585.8 360.254 586.838 361.072C587.859 361.877 588.199 362.88 588.029 363.842C587.682 365.803 585.079 367.972 580.494 367.755C573.232 367.41 566.049 367.889 559.154 372.09C560.409 370.669 562.142 368.861 564.232 367.062C568.749 363.178 574.858 359.411 581.406 359.57Z" fill="#5F9E82" stroke="#5F9E82"/>
<path d="M579.188 318.092C579.894 317.693 580.68 317.551 581.536 317.669C582.974 317.867 583.963 319.095 584.358 321.381C584.751 323.654 584.51 326.806 583.612 330.447C581.945 337.215 578.047 345.538 572.045 352.784C572.069 352.687 572.095 352.587 572.12 352.484C572.478 350.999 572.957 348.906 573.436 346.475C574.392 341.619 575.358 335.389 575.377 329.952C575.393 325.399 576.113 322.172 577.251 320.168C577.817 319.171 578.476 318.493 579.188 318.092Z" fill="#5F9E82" stroke="#5F9E82"/>
<path d="M589.928 338.747C595.299 335.79 602.238 333.126 608.718 334.062C615.274 335.008 617.621 338.186 617.461 340.607C617.302 343.008 614.623 345.296 609.837 344.407C607.291 343.935 605.188 343.37 603.198 342.858C601.213 342.348 599.336 341.89 597.279 341.647C593.599 341.214 589.385 341.478 582.898 343.28C583.054 343.164 583.219 343.043 583.391 342.918C584.987 341.753 587.252 340.22 589.928 338.747Z" fill="#5F9E82" stroke="#5F9E82"/>
<path d="M609.235 296.536C610.239 296.095 611.408 296.086 612.828 296.719C613.682 297.099 614.246 297.692 614.576 298.469C614.912 299.258 615.017 300.267 614.887 301.478C614.625 303.905 613.431 307.005 611.541 310.422C608.062 316.712 602.309 323.927 596.091 329.721C596.571 328.483 597.234 326.747 597.966 324.725C599.441 320.65 601.209 315.406 602.366 310.756V310.755C603.502 306.189 604.749 301.991 606.442 299.274C607.287 297.92 608.21 296.987 609.235 296.536Z" fill="#5F9E82" stroke="#5F9E82"/>
<path d="M631.828 315.851C637.905 315.902 642.03 317.337 644.331 319.124C645.48 320.017 646.154 320.981 646.419 321.886C646.681 322.78 646.553 323.644 646.049 324.4C645.505 325.217 644.709 325.606 643.648 325.699C642.563 325.794 641.235 325.574 639.713 325.182C638.193 324.789 636.545 324.244 634.799 323.717C633.067 323.193 631.257 322.692 629.466 322.409C624.748 321.662 618.899 321.646 614.25 321.813C612.071 321.892 610.147 322.012 608.718 322.116C608.729 322.111 608.739 322.106 608.75 322.102C610.242 321.397 612.353 320.458 614.824 319.522C619.776 317.646 626.126 315.802 631.828 315.851Z" fill="#5F9E82" stroke="#5F9E82"/>
<path d="M645.899 286.934C646.944 286.735 647.83 286.947 648.55 287.636C649.62 288.66 649.686 290.392 648.652 292.713C647.632 295.004 645.609 297.678 642.89 300.33C637.866 305.23 630.569 309.948 623.148 311.97C623.987 311.163 625.143 310.017 626.441 308.627C629.076 305.807 632.318 301.971 634.704 297.939C636.952 294.141 639.714 290.776 642.309 288.773C643.608 287.77 644.831 287.137 645.899 286.934Z" fill="#5F9E82" stroke="#5F9E82"/>
<path d="M545.106 400.452C553.735 367.604 586.082 334.246 618.97 314.385C622.53 312.235 626.297 310.027 629.773 307.096C629.773 307.096 635.276 302.675 639.197 297.949" stroke="#5F9E82" stroke-miterlimit="10" stroke-linecap="round" stroke-linejoin="round"/>
<path d="M606.154 322.833C606.154 322.833 622.441 316.962 631.323 320.635" stroke="#5F9E82" stroke-miterlimit="10" stroke-linecap="round" stroke-linejoin="round"/>
<path d="M604.768 310.397C604.768 310.397 601.414 325.876 594.837 331.536" stroke="#5F9E82" stroke-miterlimit="10" stroke-linecap="round" stroke-linejoin="round"/>
<path d="M580.553 344.492C580.553 344.492 592.041 337.03 604.936 339.213" stroke="#5F9E82" stroke-miterlimit="10" stroke-linecap="round" stroke-linejoin="round"/>
<path d="M578.239 331.132C578.239 331.132 578.224 344.367 571.039 354.722" stroke="#5F9E82" stroke-miterlimit="10" stroke-linecap="round" stroke-linejoin="round"/>
<path d="M556.501 374.542C556.501 374.542 565.101 364.673 577.436 364.158" stroke="#5F9E82" stroke-miterlimit="10" stroke-linecap="round" stroke-linejoin="round"/>
<path d="M556.286 354.364C556.286 354.364 557.534 370.484 552.613 381.43" stroke="#5F9E82" stroke-miterlimit="10" stroke-linecap="round" stroke-linejoin="round"/>
<path d="M146.921 444.81C153.074 443.819 162.292 443.957 174.266 446.312C172.941 446.454 171.301 446.653 169.499 446.921C164.931 447.601 159.272 448.736 155.026 450.56C151.288 452.164 147.434 453.172 144.326 453.192C141.295 453.212 139.152 452.305 138.324 450.317L138.249 450.121L138.193 449.942C138.084 449.525 138.127 449.112 138.322 448.7C138.551 448.216 139.003 447.709 139.721 447.214C141.162 446.221 143.564 445.35 146.921 444.81Z" fill="#5F9E82" stroke="#5F9E82"/>
<path d="M152.663 415.854C154.652 415.758 157.344 417.819 158.145 422.339C159.415 429.497 161.47 436.396 167.091 442.191C165.428 441.281 163.28 439.993 161.064 438.352C156.277 434.805 151.254 429.68 149.961 423.258C149.441 420.673 149.657 418.821 150.225 417.628C150.784 416.454 151.687 415.9 152.663 415.854Z" fill="#5F9E82" stroke="#5F9E82"/>
<path d="M121.071 427.545C128.04 427.675 137.018 429.635 145.411 433.887C145.311 433.885 145.208 433.882 145.103 433.881C143.574 433.86 141.428 433.857 138.951 433.928C134.004 434.068 127.714 434.502 122.407 435.686C117.963 436.676 114.657 436.687 112.45 436.021C111.353 435.689 110.546 435.196 109.998 434.592C109.453 433.991 109.141 433.256 109.066 432.395C108.942 430.949 109.921 429.712 112.063 428.821C114.194 427.936 117.321 427.475 121.071 427.545Z" fill="#5F9E82" stroke="#5F9E82"/>
<path d="M123.497 392.287C125.873 391.911 128.697 394.019 128.888 398.883C128.99 401.47 128.903 403.646 128.844 405.699C128.785 407.748 128.754 409.68 128.972 411.739C129.363 415.424 130.553 419.475 133.744 425.402C133.596 425.276 133.442 425.143 133.282 425.004C131.793 423.705 129.797 421.835 127.769 419.551C123.698 414.966 119.566 408.788 119.045 402.261C118.519 395.657 121.1 392.666 123.497 392.287Z" fill="#5F9E82" stroke="#5F9E82"/>
<path d="M85.9043 403.448C88.3293 403.167 91.6169 403.646 95.3672 404.733C102.27 406.736 110.579 410.751 117.604 415.534C116.29 415.339 114.45 415.078 112.316 414.812C108.017 414.274 102.512 413.709 97.7207 413.608C93.0163 413.51 88.6462 413.222 85.6221 412.171C84.1149 411.647 83.0012 410.952 82.335 410.053C81.6828 409.172 81.4145 408.033 81.7178 406.508C81.9 405.591 82.3549 404.91 83.0391 404.417C83.735 403.915 84.695 403.589 85.9043 403.448Z" fill="#5F9E82" stroke="#5F9E82"/>
<path d="M98.8374 368.184C99.6514 367.731 100.523 367.664 101.372 367.988C102.289 368.339 102.844 369.029 103.169 370.044C103.502 371.081 103.58 372.424 103.534 373.995C103.487 375.565 103.322 377.293 103.193 379.111C103.065 380.916 102.976 382.792 103.095 384.601C103.41 389.368 104.687 395.075 105.878 399.572C106.437 401.68 106.979 403.529 107.397 404.899C107.39 404.891 107.382 404.882 107.375 404.873C106.358 403.573 104.976 401.722 103.517 399.52C100.593 395.104 97.3898 389.319 96.1763 383.748C94.8831 377.809 95.3705 373.469 96.605 370.83C97.2216 369.512 98.0131 368.642 98.8374 368.184Z" fill="#5F9E82" stroke="#5F9E82"/>
<path d="M64.9624 373.677C65.7253 372.406 67.3995 371.96 69.8911 372.455C72.3511 372.944 75.4068 374.326 78.5942 376.392C84.4833 380.208 90.6987 386.281 94.311 393.07C93.3385 392.431 91.9643 391.558 90.3218 390.599C86.9892 388.652 82.5322 386.339 78.0728 384.903C73.8712 383.55 69.9784 381.601 67.4517 379.514C66.1861 378.468 65.2969 377.415 64.8628 376.418C64.4384 375.443 64.4494 374.532 64.9624 373.677Z" fill="#5F9E82" stroke="#5F9E82"/>
<path d="M197.856 449.624C163.913 448.47 124.23 424.297 97.5899 396.613C94.7069 393.617 91.7199 390.43 88.0929 387.688C88.0929 387.688 82.5649 383.298 77.0889 380.519" stroke="#5F9E82" stroke-miterlimit="10" stroke-linecap="round" stroke-linejoin="round"/>
<path d="M108.662 407.244C108.662 407.244 99.3359 392.657 100.955 383.183" stroke="#5F9E82" stroke-miterlimit="10" stroke-linecap="round" stroke-linejoin="round"/>
<path d="M96.8398 411.345C96.8398 411.345 112.678 411.195 119.652 416.357" stroke="#5F9E82" stroke-miterlimit="10" stroke-linecap="round" stroke-linejoin="round"/>
<path d="M135.443 427.425C135.443 427.425 125.626 417.871 124.904 404.812" stroke="#5F9E82" stroke-miterlimit="10" stroke-linecap="round" stroke-linejoin="round"/>
<path d="M122.926 432.633C122.926 432.633 135.837 429.722 147.524 434.44" stroke="#5F9E82" stroke-miterlimit="10" stroke-linecap="round" stroke-linejoin="round"/>
<path d="M170.067 444.238C170.067 444.238 158.541 438.032 155.312 426.117" stroke="#5F9E82" stroke-miterlimit="10" stroke-linecap="round" stroke-linejoin="round"/>
<path d="M150.436 448.909C150.436 448.909 165.881 444.129 177.644 446.508" stroke="#5F9E82" stroke-miterlimit="10" stroke-linecap="round" stroke-linejoin="round"/>
<path d="M279.755 354.891C280.276 354.914 280.703 355.115 281.045 355.492C282.562 357.165 282.393 359.546 280.909 362.3C279.434 365.036 276.738 367.968 273.569 370.518C269.967 373.414 266.312 377.881 263.571 381.597C262.489 383.063 261.545 384.419 260.798 385.523C264.33 373.841 268.529 365.633 272.289 360.663C274.34 357.951 276.234 356.237 277.787 355.431C278.561 355.028 279.22 354.866 279.755 354.891Z" fill="#5F9E82" stroke="#5F9E82"/>
<path d="M246.729 350.842C248.049 350.899 249.787 351.577 251.827 353.248C256.893 357.399 259.066 364.239 259.955 370.13C260.366 372.858 260.498 375.36 260.522 377.256C258.038 369.573 252.907 364.524 247.178 360.047C243.562 357.22 243.003 353.877 244.02 352.164C244.519 351.324 245.43 350.786 246.729 350.842Z" fill="#5F9E82" stroke="#5F9E82"/>
<path d="M274.502 322.378C276.293 320.903 277.845 320.618 279.064 321.405C279.79 321.874 280.293 322.495 280.568 323.258C280.845 324.026 280.903 324.97 280.681 326.095C280.236 328.356 278.677 331.271 275.718 334.732C272.186 338.865 268.854 344.218 266.411 348.522C265.188 350.677 264.184 352.575 263.486 353.935C263.438 354.028 263.392 354.12 263.347 354.209C263.526 344.801 266.002 335.952 269.154 329.735C270.849 326.39 272.722 323.845 274.502 322.378Z" fill="#5F9E82" stroke="#5F9E82"/>
<path d="M236.871 315.354C238.329 313.415 242.181 312.536 247.768 316.097C253.29 319.616 256.809 326.162 258.952 331.907C260.019 334.769 260.735 337.408 261.185 339.332C261.233 339.539 261.278 339.737 261.32 339.927C257.58 334.331 254.559 331.381 251.488 329.309C249.771 328.15 248.05 327.274 246.212 326.365C244.371 325.455 242.409 324.511 240.17 323.208C235.964 320.759 235.425 317.278 236.871 315.354Z" fill="#5F9E82" stroke="#5F9E82"/>
<path d="M266.549 285.3C267.306 284.927 268.12 284.845 269.015 285.113C270.505 285.56 271.385 286.33 271.858 287.319C272.34 288.33 272.432 289.64 272.188 291.217C271.699 294.381 269.905 298.376 267.788 302.577C265.63 306.857 263.548 311.985 262.008 316.035C261.244 318.045 260.612 319.793 260.168 321.045C259.236 312.597 259.583 303.375 261.05 296.339C261.847 292.516 262.965 289.387 264.35 287.377C265.041 286.374 265.78 285.679 266.549 285.3Z" fill="#5F9E82" stroke="#5F9E82"/>
<path d="M227.138 282.272C227.929 281.759 229.069 281.468 230.522 281.541C233.432 281.687 237.494 283.292 242.134 287.218C246.487 290.901 250.096 296.441 252.626 301.094C253.888 303.415 254.875 305.504 255.547 307.012C255.552 307.022 255.556 307.033 255.561 307.043C254.545 306.031 253.166 304.686 251.564 303.204C248.15 300.044 243.708 296.241 239.645 293.729C238.103 292.775 236.405 291.974 234.75 291.241C233.083 290.503 231.479 289.84 230.07 289.146C228.661 288.45 227.511 287.751 226.75 286.971C226.006 286.208 225.657 285.393 225.777 284.419C225.889 283.517 226.356 282.779 227.138 282.272Z" fill="#5F9E82" stroke="#5F9E82"/>
<path d="M247.867 254.926C248.862 254.873 249.672 255.29 250.334 256.122C251.012 256.973 251.524 258.251 251.855 259.859C252.515 263.07 252.413 267.422 251.638 271.768C250.817 276.38 250.772 281.401 250.929 285.257C251.007 287.157 251.134 288.781 251.243 289.939C246.938 283.566 244.486 275.229 243.875 268.238C243.545 264.455 243.757 261.108 244.478 258.706C245.208 256.273 246.386 255.004 247.866 254.926H247.867Z" fill="#5F9E82" stroke="#5F9E82"/>
<path d="M252.666 407.912C267.556 377.388 264.803 331.003 252.835 294.495C251.54 290.544 250.125 286.412 249.403 281.923C249.403 281.923 248.117 274.982 248.228 268.843" stroke="#5F9E82" stroke-miterlimit="10" stroke-linecap="round" stroke-linejoin="round"/>
<path d="M257.037 309.259C257.037 309.259 248.523 294.184 239.396 291.173" stroke="#5F9E82" stroke-miterlimit="10" stroke-linecap="round" stroke-linejoin="round"/>
<path d="M266.201 300.738C266.201 300.738 258.645 314.657 259.937 323.238" stroke="#5F9E82" stroke-miterlimit="10" stroke-linecap="round" stroke-linejoin="round"/>
<path d="M262.31 342.375C262.31 342.375 258.471 329.226 247.274 322.467" stroke="#5F9E82" stroke-miterlimit="10" stroke-linecap="round" stroke-linejoin="round"/>
<path d="M272.779 333.76C272.779 333.76 264.156 343.8 262.845 356.336" stroke="#5F9E82" stroke-miterlimit="10" stroke-linecap="round" stroke-linejoin="round"/>
<path d="M260.934 380.841C260.934 380.841 260.854 367.751 251.842 359.313" stroke="#5F9E82" stroke-miterlimit="10" stroke-linecap="round" stroke-linejoin="round"/>
<path d="M274.261 365.688C274.261 365.688 262.799 377.091 259.387 388.597" stroke="#5F9E82" stroke-miterlimit="10" stroke-linecap="round" stroke-linejoin="round"/>
<path d="M552.526 328.042C553.047 328.066 553.474 328.266 553.816 328.644C555.333 330.316 555.164 332.697 553.68 335.451C552.205 338.187 549.509 341.12 546.34 343.669C542.738 346.566 539.083 351.032 536.342 354.748C535.26 356.215 534.316 357.57 533.569 358.675C537.101 346.993 541.3 338.786 545.059 333.815C547.11 331.103 549.005 329.389 550.558 328.582C551.332 328.18 551.991 328.018 552.526 328.042Z" fill="#5F9E82" stroke="#5F9E82"/>
<path d="M519.5 323.992C520.82 324.049 522.558 324.727 524.598 326.398C529.664 330.55 531.837 337.389 532.726 343.28C533.137 346.008 533.269 348.51 533.293 350.406C530.809 342.724 525.678 337.675 519.949 333.197C516.333 330.371 515.774 327.027 516.791 325.314C517.29 324.475 518.201 323.936 519.5 323.992Z" fill="#5F9E82" stroke="#5F9E82"/>
<path d="M547.273 295.53C549.064 294.055 550.616 293.77 551.835 294.558C552.561 295.027 553.064 295.647 553.339 296.41C553.616 297.178 553.674 298.122 553.452 299.247C553.007 301.509 551.448 304.424 548.489 307.885C544.957 312.018 541.625 317.371 539.182 321.675C537.959 323.83 536.955 325.727 536.257 327.087C536.209 327.181 536.163 327.273 536.118 327.361C536.297 317.954 538.774 309.104 541.925 302.888C543.62 299.543 545.493 296.997 547.273 295.53Z" fill="#5F9E82" stroke="#5F9E82"/>
<path d="M509.642 288.507C511.1 286.568 514.952 285.689 520.539 289.249C526.061 292.768 529.58 299.314 531.723 305.06C532.79 307.921 533.506 310.56 533.956 312.484C534.004 312.691 534.049 312.89 534.091 313.079C530.351 307.483 527.33 304.533 524.259 302.461C522.542 301.303 520.821 300.426 518.983 299.518C517.142 298.607 515.18 297.663 512.941 296.36C508.735 293.911 508.196 290.43 509.642 288.507Z" fill="#5F9E82" stroke="#5F9E82"/>
<path d="M539.319 258.452C540.076 258.079 540.89 257.997 541.785 258.266C543.275 258.713 544.155 259.483 544.628 260.472C545.111 261.482 545.202 262.792 544.958 264.369C544.469 267.533 542.675 271.528 540.558 275.729C538.401 280.01 536.319 285.137 534.779 289.188C534.015 291.198 533.383 292.946 532.939 294.197C532.007 285.75 532.354 276.528 533.821 269.491C534.618 265.669 535.736 262.54 537.121 260.529C537.812 259.527 538.55 258.832 539.319 258.452Z" fill="#5F9E82" stroke="#5F9E82"/>
<path d="M499.908 255.425C500.699 254.911 501.839 254.62 503.292 254.693C506.202 254.84 510.264 256.444 514.904 260.37C519.257 264.053 522.866 269.593 525.396 274.246C526.658 276.567 527.645 278.656 528.317 280.164C528.321 280.174 528.325 280.184 528.33 280.194C527.315 279.183 525.936 277.838 524.335 276.356C520.921 273.197 516.478 269.394 512.415 266.881C510.873 265.928 509.175 265.127 507.52 264.394C505.853 263.655 504.249 262.993 502.84 262.298C501.431 261.602 500.281 260.903 499.52 260.123C498.776 259.36 498.427 258.546 498.547 257.571C498.659 256.67 499.126 255.932 499.908 255.425Z" fill="#5F9E82" stroke="#5F9E82"/>
<path d="M520.638 228.078C521.633 228.026 522.443 228.442 523.105 229.274C523.783 230.125 524.295 231.404 524.626 233.012C525.286 236.222 525.184 240.575 524.409 244.92C523.588 249.532 523.543 254.553 523.7 258.409C523.778 260.309 523.905 261.932 524.014 263.091C519.709 256.717 517.257 248.381 516.646 241.391C516.316 237.607 516.528 234.261 517.249 231.858C517.979 229.425 519.158 228.156 520.638 228.078Z" fill="#5F9E82" stroke="#5F9E82"/>
<path d="M525.437 381.064C540.327 350.54 537.574 304.155 525.606 267.647C524.311 263.696 522.896 259.564 522.174 255.075C522.174 255.075 520.888 248.134 520.999 241.995" stroke="#5F9E82" stroke-miterlimit="10" stroke-linecap="round" stroke-linejoin="round"/>
<path d="M529.807 282.411C529.807 282.411 521.293 267.336 512.165 264.325" stroke="#5F9E82" stroke-miterlimit="10" stroke-linecap="round" stroke-linejoin="round"/>
<path d="M538.971 273.891C538.971 273.891 531.415 287.811 532.707 296.391" stroke="#5F9E82" stroke-miterlimit="10" stroke-linecap="round" stroke-linejoin="round"/>
<path d="M535.081 315.527C535.081 315.527 531.242 302.377 520.045 295.618" stroke="#5F9E82" stroke-miterlimit="10" stroke-linecap="round" stroke-linejoin="round"/>
<path d="M545.549 306.912C545.549 306.912 536.926 316.952 535.615 329.488" stroke="#5F9E82" stroke-miterlimit="10" stroke-linecap="round" stroke-linejoin="round"/>
<path d="M533.705 353.993C533.705 353.993 533.625 340.903 524.613 332.465" stroke="#5F9E82" stroke-miterlimit="10" stroke-linecap="round" stroke-linejoin="round"/>
<path d="M547.031 338.841C547.031 338.841 535.569 350.244 532.157 361.75" stroke="#5F9E82" stroke-miterlimit="10" stroke-linecap="round" stroke-linejoin="round"/>
<path d="M494.906 307.608C497.733 306.032 500.441 305.927 502.838 306.903C505.252 307.886 507.405 309.989 509.04 312.927C512.31 318.803 513.432 327.895 510.474 337.391C507.43 347.163 510.475 356.727 512.793 365.771C515.093 374.741 516.691 383.208 511.503 391.282L496.533 384.161C489.751 374.993 488.674 362.841 492.376 351.157C493.349 348.088 493.239 344.187 492.751 340.028C492.264 335.878 491.379 331.329 490.758 327.044C490.132 322.721 489.768 318.619 490.275 315.204C490.78 311.805 492.137 309.152 494.906 307.608Z" fill="white" stroke="#5F9E82"/>
<path d="M226.086 309.816C229.002 308.411 231.712 308.466 234.047 309.582C236.399 310.706 238.423 312.934 239.88 315.963C242.796 322.023 243.377 331.165 239.862 340.468C236.244 350.043 238.716 359.771 240.495 368.937C242.259 378.027 243.351 386.573 237.695 394.325L223.17 386.33C216.945 376.777 216.592 364.582 220.98 353.138C222.133 350.132 222.255 346.231 222.014 342.051C221.774 337.879 221.159 333.285 220.793 328.971C220.425 324.618 220.304 320.503 221.013 317.124C221.719 313.76 223.231 311.193 226.086 309.816Z" fill="white" stroke="#5F9E82"/>
<path d="M616.714 416.047C620.127 415.644 623.043 416.259 625.258 418.526C627.519 420.842 628.331 423.429 628.017 425.998C627.7 428.585 626.234 431.213 623.827 433.56C619.013 438.254 610.533 441.72 600.594 441.353C590.365 440.975 581.932 446.417 573.812 451.023C565.757 455.592 558.004 459.352 548.853 456.46L551.803 440.146C558.875 431.2 570.321 426.979 582.567 427.491C585.784 427.626 589.52 426.499 593.406 424.938C597.284 423.381 601.442 421.334 605.415 419.613C609.423 417.877 613.286 416.452 616.714 416.047Z" fill="white" stroke="#5F9E82"/>
<path d="M635.354 354.03C639.615 353.705 643.543 355.06 647.288 359.061C654.786 367.07 655.011 378.4 649.978 390.13C644.945 401.856 634.688 413.878 621.434 423.088C608.154 432.316 594.29 438.633 582.377 440.152C570.483 441.669 560.615 438.405 555.098 428.571C549.421 418.451 549.019 408.68 553.688 400.204C558.373 391.701 568.214 384.406 583.222 379.393C598.351 374.339 610.76 365.123 621.142 359.322C626.362 356.406 631.048 354.359 635.354 354.03Z" fill="#87C699" stroke="#5F9E82"/>
<path d="M562.067 390.427C567.096 398.438 576.49 417.139 572.483 440.188C565.079 439.167 559.002 435.533 555.098 428.572C551.046 421.349 549.688 414.309 550.93 407.803C552.143 401.444 555.851 395.537 562.067 390.427Z" fill="#77AF86" stroke="#5F9E82"/>
<path d="M647.654 358.719C647.654 358.719 601.224 424.256 526.648 437.432" stroke="#5F9E82" stroke-miterlimit="10" stroke-linecap="round" stroke-linejoin="round"/>
<path d="M632.585 414.724L603.158 402.767" stroke="#5F9E82" stroke-miterlimit="10" stroke-linecap="round" stroke-linejoin="round"/>
<path d="M611.458 364.532L620.545 388.311" stroke="#5F9E82" stroke-miterlimit="10" stroke-linecap="round" stroke-linejoin="round"/>
<path d="M650.754 389.569L626.909 382.265" stroke="#5F9E82" stroke-miterlimit="10" stroke-linecap="round" stroke-linejoin="round"/>
<path d="M578.453 380.594L587.628 413.419" stroke="#5F9E82" stroke-miterlimit="10" stroke-linecap="round" stroke-linejoin="round"/>
<path d="M569.806 384.63L578.974 418.504" stroke="#5F9E82" stroke-miterlimit="10" stroke-linecap="round" stroke-linejoin="round"/>
<path d="M440.736 366.719C463.019 362.615 485.043 360.188 504.331 362.275C523.613 364.362 540.109 370.955 551.412 384.842C573.991 412.581 567.903 442.896 556.035 466.428H169.507C169.481 466.342 169.449 466.242 169.414 466.126C169.286 465.698 169.104 465.065 168.888 464.248C168.455 462.613 167.885 460.24 167.341 457.297C166.252 451.409 165.265 443.244 165.671 434.137C166.482 415.924 172.855 393.982 195.076 378.871C206.206 371.302 216.529 367.958 226.569 367.225C236.618 366.49 246.413 368.369 256.492 371.293C276.606 377.127 297.918 387.171 324.28 388.504C337.503 389.173 355.505 385.764 375.72 381.183C395.964 376.594 418.452 370.823 440.736 366.719Z" fill="#A8D5BA" stroke="#5F9E82"/>
<path d="M702.64 57.1377V174.302H696.393V57.1377H702.64Z" fill="#A8D5BA" stroke="#5F9E82"/>
<path d="M695.394 57.1377V174.302H468.948V57.1377H695.394Z" fill="white" stroke="#5F9E82"/>
<path d="M695.893 56.6377H468.448V174.802H695.893V56.6377Z" stroke="#5F9E82" stroke-miterlimit="10" stroke-linecap="round" stroke-linejoin="round"/>
<path d="M489.61 105.863H677.172" stroke="#5F9E82" stroke-miterlimit="10" stroke-linecap="round" stroke-linejoin="round"/>
<path d="M489.61 125.577H677.172" stroke="#5F9E82" stroke-miterlimit="10" stroke-linecap="round" stroke-linejoin="round"/>
<path d="M489.61 145.29H677.172" stroke="#5F9E82" stroke-miterlimit="10" stroke-linecap="round" stroke-linejoin="round"/>
<path d="M565.353 80.3701V85.6514H490.11V80.3701H565.353Z" fill="#538B69" stroke="#5F9E82"/>
<path d="M614.481 100.769V260.848H437.819V100.769H614.481Z" fill="white" stroke="#5F9E82"/>
<path d="M538.35 173.665L524.002 175.979C524.004 175.947 524.007 175.914 524.008 175.881C524.032 175.424 524.066 174.772 524.107 173.988C524.188 172.42 524.297 170.328 524.406 168.236C524.515 166.145 524.623 164.053 524.705 162.483C524.745 161.699 524.779 161.045 524.803 160.587C524.809 160.484 524.813 160.392 524.817 160.31L536.515 159.503L538.35 173.665Z" fill="#E8614E" stroke="#5F9E82"/>
<path d="M537.305 165.59C533.369 167.313 528.247 167.232 524.479 166.813C524.569 165.062 524.657 163.396 524.723 162.135C524.758 161.448 524.788 160.882 524.809 160.487C524.812 160.424 524.815 160.365 524.817 160.311L536.516 159.504L537.305 165.59Z" fill="#D15046" stroke="#5F9E82"/>
<path d="M523.459 85.9834C526.001 84.3215 528.697 82.9023 532.727 83.3711C536.782 83.8429 540.33 86.1852 542.889 88.4531C544.163 89.5826 545.179 90.6827 545.877 91.5C546.225 91.9083 546.493 92.2456 546.674 92.4795C546.764 92.5964 546.833 92.6868 546.878 92.748C546.9 92.7786 546.917 92.8022 546.928 92.8174C546.933 92.825 546.938 92.8304 546.94 92.834C546.942 92.8356 546.942 92.8372 546.942 92.8379L546.943 92.8389V92.8379L547.12 93.0889L547.424 93.0439H547.425C547.426 93.0437 547.429 93.0435 547.433 93.043C547.44 93.042 547.451 93.04 547.466 93.0381C547.496 93.0342 547.541 93.0283 547.602 93.0215C547.722 93.0079 547.902 92.9905 548.132 92.9736C548.592 92.9398 549.252 92.91 550.045 92.9297C551.634 92.9691 553.742 93.2049 555.839 93.9785C557.932 94.7507 560.006 96.0549 561.559 98.2305C563.111 100.405 564.172 103.491 564.172 107.877C564.172 116.716 561.674 123.058 559.188 127.183C557.945 129.246 556.703 130.758 555.776 131.75C555.313 132.246 554.929 132.612 554.662 132.853C554.569 132.937 554.488 133.004 554.426 133.058L498.677 121.977C498.664 121.965 498.647 121.952 498.63 121.937C498.547 121.861 498.427 121.746 498.279 121.593C497.984 121.286 497.582 120.835 497.125 120.251C496.21 119.082 495.085 117.394 494.167 115.294C492.391 111.233 491.391 105.639 494.182 99.2539L494.463 98.6338C495.861 95.671 497.439 93.7002 499.097 92.3887C500.752 91.0791 502.514 90.4078 504.313 90.0801C506.122 89.7509 507.966 89.7687 509.79 89.8398C511.595 89.9102 513.409 90.0348 515.07 89.8955C518.472 89.6101 520.939 87.6306 523.459 85.9834Z" fill="#252F29" stroke="#5F9E82"/>
<path d="M543.703 108.934C544.458 112.768 545.853 116.189 547.452 118.754C548.318 120.144 549.251 121.295 550.186 122.126C551.113 122.95 552.085 123.497 553.026 123.595C553.721 123.667 554.297 123.401 554.744 123.011C555.173 122.636 555.497 122.134 555.74 121.656C555.868 122.811 556.01 124.406 556.087 126.3C556.251 130.318 556.121 135.666 554.958 141.019C553.793 146.374 551.602 151.696 547.671 155.702C543.753 159.696 538.065 162.423 529.816 162.53C521.563 162.638 515.626 160.122 511.343 156.317C507.05 152.504 504.383 147.363 502.74 142.17C501.097 136.979 500.488 131.766 500.291 127.844C500.192 125.885 500.197 124.251 500.226 123.109C500.241 122.538 500.261 122.09 500.278 121.786C500.286 121.634 500.294 121.518 500.299 121.44C500.302 121.406 500.303 121.379 500.304 121.36C500.308 121.342 500.315 121.314 500.323 121.279C500.34 121.205 500.365 121.096 500.398 120.957C500.465 120.678 500.565 120.278 500.696 119.798C500.957 118.837 501.339 117.561 501.825 116.291C502.313 115.015 502.895 113.772 503.547 112.862C504.219 111.926 504.865 111.482 505.452 111.494C506.983 111.527 507.96 112.18 509.06 113.076C510.158 113.97 511.387 115.121 513.325 115.881C514.446 116.321 515.503 116.03 516.439 115.451C517.361 114.881 518.229 113.995 519.029 113.127C519.849 112.237 520.595 111.371 521.325 110.738C522.023 110.133 522.582 109.856 523.051 109.885L523.144 109.895C524.402 110.083 525.042 110.717 525.947 111.765C526.859 112.822 527.986 114.232 530.189 115.688C531.46 116.528 533.04 116.355 534.565 115.774C536.103 115.188 537.709 114.143 539.151 113.03C540.598 111.914 541.906 110.71 542.851 109.788C543.183 109.464 543.469 109.173 543.703 108.934Z" fill="#E8614E" stroke="#5F9E82"/>
<path d="M562.663 118.614C564.393 118.684 566.224 119.163 567.868 120.432C569.512 121.7 571.01 123.79 572.02 127.155C574.008 133.783 570.796 139.124 566.328 141.773C561.879 144.411 556.394 144.291 553.527 140.358L556.422 119.885C556.497 119.851 556.59 119.809 556.699 119.764C557.034 119.624 557.519 119.436 558.114 119.254C559.308 118.888 560.929 118.545 562.663 118.614Z" fill="#E8614E" stroke="#5F9E82"/>
<path d="M559.889 126.638C559.889 126.638 564.672 123.377 569.455 128.667" stroke="#5F9E82" stroke-miterlimit="10" stroke-linecap="round" stroke-linejoin="round"/>
<path d="M561.701 133.595C561.701 133.595 565.252 130.454 564.672 125.755" stroke="#5F9E82" stroke-miterlimit="10" stroke-linecap="round" stroke-linejoin="round"/>
<path d="M523 125.525C523.217 127.554 522.42 129.33 520.826 130.236C519.232 131.142 520.028 132.881 521.931 132.736" stroke="#5F9E82" stroke-miterlimit="10" stroke-linecap="round" stroke-linejoin="round"/>
<path d="M532.784 128.667C532.784 128.667 538.691 124.513 544.452 129.675L547.351 126.068" stroke="#5F9E82" stroke-miterlimit="10" stroke-linecap="round" stroke-linejoin="round"/>
<path d="M544.054 124.836L542.145 128.073" stroke="#5F9E82" stroke-miterlimit="10" stroke-linecap="round" stroke-linejoin="round"/>
<path d="M540.72 124.039L539.746 127.242" stroke="#5F9E82" stroke-miterlimit="10" stroke-linecap="round" stroke-linejoin="round"/>
<path d="M515.028 127.878C515.028 127.878 510.089 123.724 505.272 128.886L502.848 125.279" stroke="#5F9E82" stroke-miterlimit="10" stroke-linecap="round" stroke-linejoin="round"/>
<path d="M505.605 124.047L507.201 127.284" stroke="#5F9E82" stroke-miterlimit="10" stroke-linecap="round" stroke-linejoin="round"/>
<path d="M508.392 123.25L509.207 126.453" stroke="#5F9E82" stroke-miterlimit="10" stroke-linecap="round" stroke-linejoin="round"/>
<path d="M529.379 140.406C529.379 139.741 528.84 139.203 528.176 139.203C527.512 139.203 526.973 139.742 526.973 140.406C526.973 141.07 527.512 141.609 528.176 141.609C528.84 141.609 529.379 141.07 529.379 140.406Z" stroke="#5F9E82" stroke-miterlimit="10" stroke-linecap="round" stroke-linejoin="round"/>
<path d="M510.206 148.924C513.212 148.924 515.649 151.361 515.649 154.367C515.649 155.922 514.996 157.322 513.95 158.313C510.79 156.216 508.346 153.48 506.458 150.431C507.435 149.498 508.752 148.924 510.206 148.924Z" fill="#D15046" stroke="#5F9E82"/>
<path d="M544.055 148.924C546.817 148.924 549.096 150.983 549.447 153.648C547.634 156.006 545.355 158.045 542.491 159.574C540.247 158.901 538.611 156.827 538.611 154.367C538.611 151.361 541.049 148.924 544.055 148.924Z" fill="#D15046" stroke="#5F9E82"/>
<path d="M497.012 120.71C498.213 120.722 499.331 120.979 500.154 121.235C500.564 121.363 500.898 121.49 501.127 121.584C501.171 121.602 501.21 121.619 501.246 121.635L505.058 142.289C502.846 144.006 500.67 144.445 498.694 144.04C496.632 143.617 494.717 142.261 493.178 140.32C490.088 136.425 488.643 130.352 490.491 125.456C491.23 123.498 492.28 122.319 493.412 121.626C494.55 120.929 495.812 120.698 497.012 120.71Z" fill="#E8614E" stroke="#5F9E82"/>
<path d="M506.088 183.942C526.46 177.435 543.54 175.725 556.727 178.067C569.9 180.408 579.168 186.786 584.012 196.463C588.896 206.223 591.789 222.419 593.456 236.238C594.288 243.135 594.813 249.418 595.13 253.977C595.288 256.256 595.394 258.104 595.461 259.382C595.494 260.016 595.518 260.51 595.533 260.846H460.115C461.574 255.958 462.677 249.65 464.068 242.776C465.526 235.574 467.309 227.711 470.167 220.064C475.878 204.785 485.863 190.403 506.088 183.942Z" fill="#FFB852" stroke="#5F9E82"/>
<path d="M506.088 183.944C527.972 176.954 546.045 175.51 559.583 178.667C561.053 183.035 559.534 188.324 555.201 192.802C550.792 197.357 543.501 201.025 533.68 201.875C521.742 202.908 514.199 199.433 509.643 195.285C507.358 193.206 505.814 190.947 504.843 188.98C503.982 187.238 503.584 185.753 503.501 184.842C504.346 184.528 505.206 184.226 506.088 183.944Z" fill="#F4A647" stroke="#5F9E82"/>
<path d="M559.746 221.733C559.746 221.733 562.645 245.734 563.37 261.346" stroke="#5F9E82" stroke-miterlimit="10" stroke-linecap="round" stroke-linejoin="round"/>
<path d="M539.845 169.851C542.698 168.851 545.414 168.319 547.831 169.428C549.04 169.982 550.436 171.149 551.708 172.763C552.975 174.371 554.096 176.392 554.776 178.618C556.133 183.056 555.737 188.288 551.272 192.753C546.781 197.245 539.54 199.295 532.153 199.511C524.773 199.726 517.368 198.106 512.631 195.392C507.927 192.695 505.184 188.23 504.408 184.113C503.626 179.963 504.85 176.362 507.798 175.085C510.957 173.716 514.491 173.512 518.466 173.467C522.417 173.421 526.79 173.531 531.492 172.727C532.818 172.5 534.208 172.022 535.604 171.486C537.017 170.944 538.418 170.351 539.845 169.851Z" fill="#F8C463" stroke="#5F9E82"/>
<path d="M514.434 173.117C514.434 173.117 510.784 187.55 516.15 197.557" stroke="#5F9E82" stroke-miterlimit="10" stroke-linecap="round" stroke-linejoin="round"/>
<path d="M540.083 169.242C540.083 169.242 547.37 181.234 546.183 196.9" stroke="#5F9E82" stroke-miterlimit="10" stroke-linecap="round" stroke-linejoin="round"/>
<path d="M527.748 172.697C527.748 172.697 527.042 187.467 529.823 200.016" stroke="#5F9E82" stroke-miterlimit="10" stroke-linecap="round" stroke-linejoin="round"/>
<path d="M614.981 100.269H437.319V261.348H614.981V100.269Z" stroke="#5F9E82" stroke-miterlimit="10" stroke-linecap="round" stroke-linejoin="round"/>
<path d="M625.933 100.769V260.848H615.481V100.769H625.933Z" fill="#A8D5BA" stroke="#5F9E82"/>
<path d="M71.9692 57.1377V174.302H65.7222V57.1377H71.9692Z" fill="#A8D5BA" stroke="#5F9E82"/>
<path d="M299.415 57.1377V174.302H72.9692V57.1377H299.415Z" fill="white" stroke="#5F9E82"/>
<path d="M299.914 56.6377H72.4692V174.802H299.914V56.6377Z" stroke="#5F9E82" stroke-miterlimit="10" stroke-linecap="round" stroke-linejoin="round"/>
<path d="M93.6313 105.863H281.193" stroke="#5F9E82" stroke-miterlimit="10" stroke-linecap="round" stroke-linejoin="round"/>
<path d="M93.6313 125.577H281.193" stroke="#5F9E82" stroke-miterlimit="10" stroke-linecap="round" stroke-linejoin="round"/>
<path d="M93.6313 145.29H281.193" stroke="#5F9E82" stroke-miterlimit="10" stroke-linecap="round" stroke-linejoin="round"/>
<path d="M169.374 80.3701V85.6514H94.1313V80.3701H169.374Z" fill="#538B69" stroke="#5F9E82"/>
<path d="M151.552 100.769V260.848H141.101V100.769H151.552Z" fill="#A8D5BA" stroke="#5F9E82"/>
<path d="M329.214 100.769V260.848H152.552V100.769H329.214Z" fill="white" stroke="#5F9E82"/>
<path d="M191.953 182.147C196.648 179.026 203.126 177.831 211.619 178.447L243.33 194.783L243.503 194.872L243.691 194.82L275.35 186.142C277.83 186.912 280.31 187.891 282.733 189.131C287.273 191.454 290.834 195.873 293.613 201.568C296.39 207.26 298.364 214.181 299.755 221.431C302.489 235.685 302.955 251.133 302.901 260.847H178.094C178.099 260.539 178.107 260.096 178.118 259.53C178.142 258.353 178.181 256.647 178.241 254.53C178.361 250.296 178.564 244.42 178.899 237.852C179.57 224.706 180.765 208.817 182.859 197.766C184.259 190.382 187.254 185.272 191.953 182.147Z" fill="#739681" stroke="#5F9E82"/>
<path d="M210.867 178.346C211.487 178.37 212.117 178.402 212.759 178.448L244.468 194.784L244.641 194.873L244.829 194.821L276.487 186.143C277.242 186.377 277.997 186.639 278.754 186.917C277.146 193.491 274.244 201.401 269.029 207.516C263.719 213.742 256.002 218.123 244.732 217.321C230.677 216.321 222.494 208.894 217.664 200.489C213.006 192.383 211.474 183.37 210.867 178.346Z" fill="#2393A5" stroke="#5F9E82"/>
<path d="M213.482 178.505C221.631 179.185 231.533 181.474 243.362 185.248L243.5 185.292L243.639 185.256H243.641C243.643 185.255 243.645 185.255 243.649 185.254C243.656 185.252 243.667 185.249 243.682 185.245C243.712 185.238 243.758 185.226 243.819 185.212C243.94 185.183 244.122 185.14 244.36 185.088C244.835 184.983 245.535 184.839 246.427 184.682C248.212 184.366 250.766 183.998 253.833 183.787C259.864 183.373 267.862 183.572 275.912 185.967C274.738 191.407 272.408 198.528 267.812 204.232C263.107 210.072 256.016 214.445 245.274 213.993C233.002 213.477 225.395 206.919 220.663 199.247C216.113 191.871 214.237 183.482 213.482 178.505Z" fill="#BA5D34" stroke="#5F9E82"/>
<path d="M219.162 240.287V261.346" stroke="#5F9E82" stroke-miterlimit="10" stroke-linecap="round" stroke-linejoin="round"/>
<path d="M329.714 100.269H152.052V261.348H329.714V100.269Z" stroke="#5F9E82" stroke-miterlimit="10" stroke-linecap="round" stroke-linejoin="round"/>
<path d="M253.412 167.923L252.671 188.837L235.57 187.333L237.059 167.923H253.412Z" fill="#BA5D34" stroke="#5F9E82"/>
<path d="M253.412 167.922L253.135 175.729C246.783 176.878 240.386 175.79 236.529 174.826L237.059 167.922H253.412Z" fill="#A84C29" stroke="#5F9E82"/>
<path d="M219.328 89.1807C231.13 79.8457 247.228 78.4324 260.687 82.5801C274.158 86.7316 284.826 96.3945 285.971 109.054C287.128 121.843 282.769 131.342 278.121 137.65C275.795 140.806 273.397 143.162 271.582 144.729C270.674 145.511 269.913 146.097 269.381 146.484C269.116 146.678 268.906 146.823 268.765 146.918C268.744 146.933 268.723 146.946 268.705 146.958L214.977 139.184C214.951 139.14 214.921 139.089 214.888 139.031C214.753 138.797 214.557 138.449 214.316 137.999C213.833 137.098 213.167 135.787 212.442 134.155C210.992 130.889 209.309 126.344 208.367 121.22C206.483 110.973 207.569 98.4813 219.328 89.1807Z" fill="#252F29" stroke="#5F9E82"/>
<path d="M253.365 111.58C253.497 111.801 253.671 112.078 253.894 112.389C254.447 113.161 255.292 114.153 256.458 115.025C258.724 116.72 262.163 117.925 266.899 116.275C266.962 116.582 267.054 116.995 267.186 117.483C267.477 118.568 267.959 120.037 268.721 121.569C270.198 124.543 272.767 127.822 277.105 128.906C277.108 128.939 277.112 128.974 277.114 129.011C277.136 129.314 277.162 129.761 277.184 130.33C277.227 131.469 277.25 133.099 277.167 135.057C277 138.975 276.41 144.189 274.722 149.397C273.033 154.606 270.255 159.784 265.729 163.666C261.21 167.541 254.912 170.156 246.119 170.184C238.344 170.208 232.548 167.638 228.21 163.783C223.862 159.919 220.956 154.742 219.017 149.528C217.078 144.316 216.114 139.094 215.637 135.17C215.398 133.209 215.281 131.576 215.224 130.434C215.204 130.042 215.192 129.708 215.184 129.438C217.746 130.496 220.277 130.147 222.611 129.021C225.153 127.796 227.485 125.645 229.452 123.357C231.424 121.064 233.057 118.602 234.195 116.718C234.765 115.775 235.213 114.974 235.519 114.408C235.624 114.213 235.71 114.045 235.78 113.909C235.793 113.914 235.807 113.919 235.82 113.924C236.119 114.029 236.553 114.171 237.097 114.319C238.184 114.616 239.717 114.94 241.507 115.052C244.951 115.266 249.371 114.689 253.365 111.58Z" fill="#BA5D34" stroke="#5F9E82"/>
<path d="M205.439 128.564C208.09 127.52 211.193 127.693 214.254 129.016L220.075 149.02C216.306 151.747 212.942 152.882 210.075 152.938C207.144 152.994 204.689 151.928 202.799 150.21C198.994 146.751 197.485 140.655 199.125 135.84C200.438 131.986 202.737 129.63 205.439 128.564Z" fill="#BA5D34" stroke="#5F9E82"/>
<path d="M203.218 139.013C203.218 139.013 205.682 131.766 212.639 134.52" stroke="#5F9E82" stroke-miterlimit="10" stroke-linecap="round" stroke-linejoin="round"/>
<path d="M210.031 141.477C210.031 141.477 207.094 138.182 207.258 134.394" stroke="#5F9E82" stroke-miterlimit="10" stroke-linecap="round" stroke-linejoin="round"/>
<path d="M278.014 128.835C279.006 128.323 279.903 128.224 280.702 128.423C281.56 128.636 282.372 129.211 283.099 130.135C284.562 131.994 285.598 135.162 285.92 139.054C286.306 143.725 284.403 148.157 281.702 150.658C280.354 151.906 278.835 152.65 277.327 152.741C275.901 152.827 274.429 152.332 273.052 151.024L278.014 128.835Z" fill="#BA5D34" stroke="#5F9E82"/>
<path d="M224.779 130.152L227.334 133.894C227.334 133.894 234.183 129.608 239.836 133.468" stroke="#5F9E82" stroke-miterlimit="10" stroke-linecap="round" stroke-linejoin="round"/>
<path d="M228.801 129.392L230.328 132.56" stroke="#5F9E82" stroke-miterlimit="10" stroke-linecap="round" stroke-linejoin="round"/>
<path d="M232.769 129.392L233.274 131.921" stroke="#5F9E82" stroke-miterlimit="10" stroke-linecap="round" stroke-linejoin="round"/>
<path d="M272.503 130.811L270.165 134.553C270.165 134.553 263.897 130.267 258.724 134.127" stroke="#5F9E82" stroke-miterlimit="10" stroke-linecap="round" stroke-linejoin="round"/>
<path d="M268.822 130.05L267.424 133.219" stroke="#5F9E82" stroke-miterlimit="10" stroke-linecap="round" stroke-linejoin="round"/>
<path d="M265.19 130.05L264.729 132.579" stroke="#5F9E82" stroke-miterlimit="10" stroke-linecap="round" stroke-linejoin="round"/>
<path d="M251.01 131.314C251.01 131.314 252.908 133.807 253.93 138.771L250.207 139.501" stroke="#5F9E82" stroke-miterlimit="10" stroke-linecap="round" stroke-linejoin="round"/>
<path d="M239.96 144.785C241.001 144.884 242.476 145.008 244.214 145.108C247.354 145.29 251.365 145.395 255.231 145.141C255.224 145.148 255.218 145.156 255.211 145.163C254.687 145.717 253.935 146.446 253.021 147.146C251.174 148.56 248.762 149.785 246.277 149.374C243.722 148.952 241.857 147.587 240.622 146.311C240.053 145.723 239.624 145.158 239.325 144.721C239.513 144.74 239.726 144.763 239.96 144.785Z" fill="white" stroke="#5F9E82"/>
<path d="M229.565 153.5C233.172 153.5 236.095 156.423 236.095 160.03C236.095 162.958 234.163 165.43 231.504 166.257C228.135 164.133 225.457 161.295 223.329 158.113C224.148 155.442 226.628 153.499 229.565 153.5Z" fill="#CE6B45" stroke="#5F9E82"/>
<path d="M267.424 153.499C269.28 153.499 270.953 154.276 272.142 155.522C270.145 159.264 267.385 162.7 263.583 165.304C261.954 164.115 260.894 162.198 260.894 160.029C260.894 156.422 263.817 153.499 267.424 153.499Z" fill="#CE6B45" stroke="#5F9E82"/>
<path d="M390.509 265.617V285.381H376.996V265.617H390.509Z" fill="#FF98AA" stroke="#5F9E82"/>
<path d="M390.509 265.616V270.788C385.301 272.803 380.446 272.608 376.996 271.959V265.616H390.509Z" fill="#FF8095" stroke="#5F9E82"/>
<path d="M365.477 197.806C378.815 191.495 395.114 192.487 405.729 199.084C408.451 200.776 410.307 203.711 411.543 207.238C412.778 210.762 413.377 214.823 413.622 218.688C413.866 222.551 413.755 226.197 413.583 228.879C413.498 230.219 413.396 231.317 413.317 232.079C413.288 232.354 413.26 232.585 413.239 232.768L354.779 225.174C354.766 225.03 354.75 224.848 354.735 224.631C354.692 224.028 354.647 223.158 354.633 222.094C354.606 219.962 354.71 217.058 355.229 213.961C356.272 207.74 358.964 200.887 365.477 197.806Z" fill="#252F29" stroke="#5F9E82"/>
<path d="M405.878 211.898C406.264 213.579 406.663 214.956 407.125 216.772C407.669 218.913 408.313 221.71 409.154 226.432C410.456 233.735 411.395 244.052 408.332 252.519C406.805 256.738 404.289 260.486 400.335 263.182C396.379 265.879 390.942 267.553 383.525 267.553C376.137 267.553 370.688 265.422 366.704 262.129C362.713 258.83 360.156 254.333 358.61 249.545C357.065 244.757 356.54 239.7 356.601 235.314C356.661 230.92 357.309 227.244 358.078 225.217C359.679 220.998 360.663 217.757 361.247 215.566C361.539 214.471 361.731 213.638 361.851 213.077C361.852 213.072 361.852 213.067 361.854 213.062C362.137 213.287 362.506 213.574 362.961 213.899C364.104 214.718 365.773 215.795 367.89 216.837C372.122 218.921 378.155 220.872 385.334 220.32C392.489 219.769 397.781 217.506 401.29 215.373C403.043 214.307 404.351 213.275 405.223 212.505C405.479 212.279 405.697 212.073 405.878 211.898Z" fill="#FF98AA" stroke="#5F9E82"/>
<path d="M402.328 250.506C404.708 250.506 406.769 251.844 407.821 253.808C406.342 257.314 404.112 260.432 400.851 262.809C398.117 262.146 396.088 259.683 396.088 256.746C396.088 253.3 398.882 250.506 402.328 250.506Z" fill="#FF8095" stroke="#5F9E82"/>
<path d="M366.278 250.506C369.724 250.506 372.518 253.3 372.518 256.746C372.517 259.73 370.421 262.219 367.62 262.834C364.529 260.543 362.227 257.574 360.552 254.277C361.51 252.059 363.711 250.506 366.278 250.506Z" fill="#FF8095" stroke="#5F9E82"/>
<path d="M349.298 222.391C350.964 222.301 352.439 222.743 353.673 223.382C354.91 224.022 355.898 224.855 356.579 225.533C356.918 225.871 357.178 226.169 357.352 226.38C357.42 226.462 357.475 226.531 357.516 226.584V245.881C353.08 247.921 349.517 248.011 346.791 246.972C344.002 245.908 342.001 243.632 340.816 240.845C339.629 238.055 339.275 234.786 339.762 231.813C340.25 228.837 341.572 226.211 343.675 224.643C345.744 223.1 347.636 222.48 349.298 222.391Z" fill="#FF98AA" stroke="#5F9E82"/>
<path d="M343.593 233.893C343.593 233.893 345.477 226.863 354.319 230.197" stroke="#5F9E82" stroke-miterlimit="10" stroke-linecap="round" stroke-linejoin="round"/>
<path d="M350.406 237.227C350.406 237.227 347.964 234.244 348.533 229.43" stroke="#5F9E82" stroke-miterlimit="10" stroke-linecap="round" stroke-linejoin="round"/>
<path d="M417.552 222.391C419.214 222.48 421.106 223.099 423.175 224.643C425.278 226.211 426.6 228.837 427.088 231.813C427.575 234.786 427.221 238.055 426.034 240.845C424.849 243.632 422.848 245.908 420.06 246.972C417.333 248.011 413.77 247.922 409.334 245.882V226.584C409.375 226.531 409.429 226.462 409.497 226.38C409.672 226.169 409.932 225.871 410.271 225.533C410.952 224.855 411.94 224.022 413.177 223.382C414.411 222.743 415.886 222.301 417.552 222.391Z" fill="#FF98AA" stroke="#5F9E82"/>
<path d="M423.256 233.893C423.256 233.893 421.372 226.863 412.53 230.197" stroke="#5F9E82" stroke-miterlimit="10" stroke-linecap="round" stroke-linejoin="round"/>
<path d="M416.444 237.227C416.444 237.227 418.886 234.244 418.317 229.43" stroke="#5F9E82" stroke-miterlimit="10" stroke-linecap="round" stroke-linejoin="round"/>
<path d="M383.357 229.374C383.604 232.135 383.943 233.224 381.983 234.928C379.709 236.906 380.749 238.724 383.477 238.365" stroke="#5F9E82" stroke-miterlimit="10" stroke-linecap="round" stroke-linejoin="round"/>
<path d="M365.408 232.775C365.408 232.775 371.659 227.666 375.953 232.775" stroke="#5F9E82" stroke-miterlimit="10" stroke-linecap="round" stroke-linejoin="round"/>
<path d="M392.314 232.775C392.314 232.775 395.467 226.85 403.62 232.775" stroke="#5F9E82" stroke-miterlimit="10" stroke-linecap="round" stroke-linejoin="round"/>
<path d="M375.953 247.132C375.953 247.132 387.568 249.871 397.32 242.6" stroke="#5F9E82" stroke-miterlimit="10" stroke-linecap="round" stroke-linejoin="round"/>
<path d="M471.944 227.88C472.236 227.792 472.566 227.857 472.974 228.175C473.39 228.499 473.83 229.047 474.278 229.789C475.171 231.267 476.012 233.374 476.74 235.552C477.466 237.722 478.069 239.934 478.49 241.604C478.701 242.439 478.866 243.137 478.979 243.627C479.035 243.872 479.078 244.064 479.106 244.195C479.121 244.261 479.132 244.311 479.14 244.345C479.143 244.361 479.146 244.374 479.147 244.383C479.148 244.387 479.149 244.39 479.149 244.392L479.15 244.395L479.227 244.754L479.592 244.788L490.94 245.857C493.571 248.172 494.705 252.127 495.157 255.631C495.385 257.392 495.436 259.007 495.431 260.182C495.428 260.768 495.411 261.243 495.395 261.571C495.39 261.67 495.383 261.756 495.379 261.827L484.014 268.913L474.401 267.345L474.473 245.885L474.474 245.809L474.451 245.736L474.45 245.734C474.45 245.732 474.449 245.729 474.447 245.725C474.445 245.716 474.441 245.704 474.437 245.688C474.427 245.655 474.412 245.606 474.393 245.543C474.355 245.415 474.299 245.228 474.229 244.988C474.09 244.51 473.895 243.824 473.67 242.999C473.22 241.347 472.654 239.137 472.187 236.9C471.718 234.658 471.355 232.411 471.301 230.679C471.274 229.809 471.326 229.104 471.464 228.604C471.605 228.091 471.797 227.925 471.944 227.88Z" fill="#FF98AA" stroke="#5F9E82"/>
<path d="M495.44 254.182C494.865 250.956 493.65 247.495 491.15 245.375L479.639 244.29C479.639 244.29 475.787 226.193 471.799 227.401C468.628 228.361 473.973 245.882 473.973 245.882" stroke="#5F9E82" stroke-miterlimit="10" stroke-linecap="round" stroke-linejoin="round"/>
<path d="M476.472 243.144C476.985 242.923 477.422 242.866 477.798 242.92C478.174 242.973 478.527 243.143 478.865 243.435C479.083 243.623 479.192 243.931 479.122 244.469C479.05 245.013 478.805 245.688 478.448 246.461C478.093 247.228 477.648 248.048 477.202 248.884C476.759 249.711 476.314 250.554 475.978 251.338L475.44 252.593L476.663 251.981C476.665 251.98 476.669 251.979 476.673 251.977C476.683 251.972 476.698 251.964 476.719 251.954C476.762 251.934 476.827 251.905 476.913 251.868C477.084 251.795 477.338 251.693 477.662 251.581C478.309 251.357 479.229 251.097 480.317 250.953C482.415 250.675 485.11 250.831 487.682 252.482L483.742 268.867L474.295 267.327C474.292 267.316 474.29 267.305 474.287 267.294C474.224 267.075 474.134 266.758 474.022 266.367C473.797 265.586 473.484 264.508 473.13 263.323C472.424 260.96 471.549 258.153 470.889 256.43C470.25 254.76 469.918 253.31 470.103 251.806C470.288 250.303 470.996 248.683 472.554 246.699C474.133 244.69 475.429 243.592 476.472 243.144Z" fill="#FF98AA" stroke="#5F9E82"/>
<path d="M472.651 263.467C471.944 261.102 471.075 258.312 470.422 256.609C469.117 253.203 468.973 250.449 472.161 246.39C475.35 242.331 477.597 241.679 479.191 243.056C480.785 244.433 477.742 248.492 476.437 251.535C476.437 251.535 482.67 248.419 488.25 252.26" stroke="#5F9E82" stroke-miterlimit="10" stroke-linecap="round" stroke-linejoin="round"/>
<path d="M484.275 239.232L483.311 239.258L483.308 239.26V239.259C483.307 239.258 483.306 239.256 483.306 239.254C483.304 239.249 483.302 239.241 483.299 239.23C483.293 239.21 483.283 239.178 483.27 239.137C483.243 239.055 483.203 238.936 483.15 238.793C483.044 238.506 482.89 238.13 482.69 237.763C482.488 237.39 482.255 237.053 482.003 236.822C481.753 236.593 481.527 236.506 481.314 236.523C480.737 236.571 480.189 236.928 479.772 237.793C479.348 238.675 479.087 240.044 479.121 241.979C479.156 243.929 479.394 246.505 479.881 248.573C480.125 249.612 480.424 250.488 480.771 251.089C481.131 251.715 481.449 251.89 481.686 251.884C482.483 251.862 482.991 251.43 483.32 250.963C483.486 250.728 483.599 250.492 483.671 250.313C483.707 250.225 483.732 250.151 483.747 250.103C483.755 250.079 483.761 250.061 483.764 250.05C483.765 250.044 483.766 250.04 483.767 250.038L484.737 250.067H484.742C484.742 250.068 484.743 250.069 484.743 250.07C484.744 250.074 484.745 250.08 484.747 250.088C484.751 250.104 484.756 250.129 484.764 250.162C484.78 250.229 484.806 250.327 484.843 250.445C484.917 250.684 485.035 250.995 485.208 251.301C485.56 251.923 486.074 252.418 486.844 252.402C487.256 252.394 487.541 252.269 487.747 252.102C487.961 251.929 488.116 251.69 488.229 251.428C488.341 251.165 488.4 250.897 488.432 250.69C488.447 250.588 488.455 250.504 488.459 250.447C488.461 250.419 488.462 250.398 488.463 250.385V250.369L488.471 249.75L489.073 249.889C489.076 249.889 489.08 249.89 489.087 249.892C489.103 249.894 489.13 249.898 489.167 249.901C489.241 249.909 489.353 249.916 489.491 249.908C489.768 249.892 490.145 249.819 490.542 249.588C491.315 249.138 492.307 247.997 492.634 245.057C492.975 241.988 492.775 240.067 492.345 238.926C491.927 237.817 491.321 237.493 490.78 237.459C490.297 237.428 489.882 237.783 489.538 238.34C489.377 238.601 489.256 238.869 489.175 239.075C489.135 239.177 489.105 239.262 489.086 239.32C489.076 239.349 489.07 239.372 489.065 239.386C489.063 239.392 489.062 239.397 489.062 239.4L489.061 239.403L488.643 240.887L488.11 239.44L488.108 239.437C488.107 239.433 488.105 239.427 488.102 239.419C488.095 239.403 488.086 239.377 488.072 239.345C488.045 239.279 488.004 239.185 487.949 239.07C487.84 238.84 487.68 238.537 487.475 238.24C487.037 237.607 486.523 237.182 485.984 237.211C485.419 237.242 484.998 237.656 484.689 238.198C484.541 238.459 484.437 238.721 484.369 238.92C484.335 239.019 484.311 239.1 484.296 239.155C484.288 239.183 484.284 239.204 484.28 239.217C484.279 239.223 484.277 239.228 484.276 239.23L484.275 239.231V239.232ZM484.275 239.232H484.276H484.275Z" fill="#FF98AA" stroke="#5F9E82"/>
<path d="M483.788 239.123C483.788 239.123 484.506 243.96 484.251 250.161" stroke="#5F9E82" stroke-miterlimit="10" stroke-linecap="round" stroke-linejoin="round"/>
<path d="M488.58 239.268C488.58 239.268 489.627 243.742 488.965 250.377" stroke="#5F9E82" stroke-miterlimit="10" stroke-linecap="round" stroke-linejoin="round"/>
<path d="M481.699 252.383C479.587 252.44 478.691 245.935 478.621 241.988C478.551 238.041 479.676 236.157 481.273 236.025C482.87 235.893 483.788 239.122 483.788 239.122C483.788 239.122 484.31 236.801 485.957 236.711C487.604 236.621 488.579 239.267 488.579 239.267C488.579 239.267 489.256 236.861 490.812 236.96C492.368 237.059 493.818 238.916 493.13 245.111C492.456 251.18 488.963 250.376 488.963 250.376C488.963 250.376 488.934 252.86 486.854 252.902C484.774 252.944 484.251 250.16 484.251 250.16C484.251 250.16 483.708 252.328 481.699 252.383Z" stroke="#5F9E82" stroke-miterlimit="10" stroke-linecap="round" stroke-linejoin="round"/>
<path d="M495.656 263.023C495.827 263.506 496.074 264.22 496.378 265.14C496.986 266.98 497.825 269.645 498.743 272.941C500.58 279.535 502.734 288.649 504.008 298.732C506.56 318.939 505.552 342.871 491.578 358.314C478.04 373.276 462.868 373.786 451.044 370.56C445.121 368.944 440.04 366.388 436.438 364.234C434.637 363.158 433.209 362.183 432.231 361.479C431.743 361.127 431.368 360.842 431.115 360.646C430.989 360.549 430.894 360.473 430.83 360.422C430.798 360.396 430.774 360.377 430.759 360.364C430.751 360.358 430.745 360.354 430.741 360.351C430.739 360.349 430.738 360.348 430.737 360.348L430.736 360.347L430.409 360.076L430.09 360.355L385.876 398.989H348.416C311.458 398.753 294.523 389.792 288.642 377.672C285.696 371.601 285.477 364.66 286.984 357.465C288.492 350.269 291.719 342.854 295.619 335.873C310.101 309.948 341.066 283.812 376.024 278.825C376.587 279.565 378.38 281.913 380.188 284.16C381.261 285.495 382.345 286.803 383.181 287.72C383.595 288.174 383.964 288.551 384.247 288.785C384.378 288.894 384.537 289.012 384.697 289.071C384.773 289.1 384.934 289.147 385.115 289.089C385.341 289.017 385.454 288.834 385.494 288.684C385.511 288.62 385.602 288.403 385.79 288.018C385.968 287.653 386.21 287.182 386.496 286.639C387.067 285.553 387.807 284.194 388.539 282.863C389.271 281.533 389.995 280.232 390.538 279.262C390.809 278.777 391.036 278.374 391.194 278.093C391.234 278.022 391.269 277.958 391.3 277.903C407.887 278 419.003 281.338 426.683 286.212C434.402 291.111 438.697 297.594 441.579 304.018C443.022 307.233 444.109 310.431 445.097 313.414C446.081 316.386 446.972 319.166 448.015 321.497C449.057 323.827 450.278 325.773 451.958 327.045C453.659 328.332 455.779 328.89 458.527 328.543C464.907 327.737 469.063 323.414 471.705 317.523C474.342 311.644 475.508 304.134 475.902 296.771C476.297 289.398 475.92 282.129 475.445 276.707C475.208 273.995 474.945 271.743 474.742 270.168C474.641 269.38 474.555 268.762 474.493 268.34C474.483 268.267 474.472 268.201 474.463 268.14L495.545 262.714C495.577 262.803 495.615 262.906 495.656 263.023Z" fill="#538B69" stroke="#5F9E82"/>
<path d="M286.304 361.701C293.368 368.732 315.468 387.422 352.406 389.354C367.155 390.127 382.159 390.393 395.696 390.406L385.875 398.988H348.415C322.103 398.821 305.92 394.227 296.669 387.211C287.774 380.464 285.224 371.424 286.304 361.701Z" fill="#538B69" stroke="#5F9E82"/>
<path d="M504.057 329.841C502.414 340.465 498.664 350.483 491.577 358.315C478.038 373.277 462.868 373.786 451.043 370.56C445.121 368.943 440.04 366.388 436.437 364.234C434.637 363.158 433.207 362.183 432.23 361.479C431.742 361.126 431.366 360.841 431.114 360.646C431.047 360.593 430.989 360.547 430.939 360.508L431.877 349.947C432.281 350.158 432.857 350.453 433.587 350.805C435.113 351.539 437.312 352.526 440.011 353.541C445.407 355.571 452.82 357.719 460.863 358.177C468.907 358.634 477.603 357.4 485.536 352.639C492.711 348.332 499.22 341.162 504.057 329.841Z" fill="#538B69" stroke="#5F9E82"/>
<path d="M383.801 281.096L378.62 290.718L368.801 279.91L376.458 274.809L383.801 281.096Z" fill="white" stroke="#5F9E82"/>
<path d="M400.679 278.171L392.551 290.711L385.092 281.015L391.145 274.763L400.679 278.171Z" fill="white" stroke="#5F9E82"/>
<path d="M392.028 291.673C391.982 291.806 391.913 291.99 391.817 292.209C391.611 292.682 391.285 293.311 390.809 293.938C389.86 295.185 388.336 296.403 385.955 296.403C383.565 296.403 381.884 295.176 380.78 293.911C380.229 293.279 379.829 292.644 379.567 292.168C379.437 291.931 379.342 291.735 379.28 291.6L384.507 281.894L392.028 291.673Z" fill="#5F9E82" stroke="#5F9E82"/>
<path d="M388.175 294.795L395.065 337.178L385.635 353.692L374.96 336.701L382.998 294.795H388.175Z" fill="#5F9E82" stroke="#5F9E82"/>
<path d="M391.372 404.324V421.184H352.217V404.324H391.372Z" fill="#5F9E82" stroke="#5F9E82"/>
<path d="M351.285 462.455C350.922 462.547 350.494 462.655 350.007 462.772C348.331 463.179 345.967 463.72 343.217 464.262C337.711 465.347 330.682 466.427 324.534 466.427C318.33 466.427 308.751 466.426 300.592 465.048C296.51 464.359 292.825 463.331 290.106 461.812C287.392 460.297 285.71 458.337 285.46 455.79C285.213 453.268 286.552 451.303 288.861 449.74C291.18 448.171 294.405 447.067 297.713 446.297C301.013 445.529 304.352 445.104 306.87 444.871C308.127 444.755 309.178 444.686 309.914 444.646C310.281 444.627 310.571 444.615 310.767 444.607C310.844 444.605 310.906 444.602 310.954 444.601L351.285 462.455Z" fill="#252F29" stroke="#5F9E82"/>
<path d="M457.265 399.992C475.123 400.118 486.17 402.464 493.037 406.345C499.858 410.2 502.601 415.597 503.776 422.012C504.943 428.373 503.256 435.182 497.201 440.766C491.127 446.366 480.616 450.77 464.074 452.17C447.496 453.573 425.01 453.969 406.658 454.013C397.485 454.035 389.349 453.969 383.506 453.897C380.584 453.862 378.236 453.825 376.618 453.797C375.81 453.783 375.184 453.771 374.76 453.763C374.676 453.761 374.6 453.759 374.532 453.758L369.226 420.067C369.291 420.042 369.366 420.015 369.448 419.983C369.843 419.834 370.427 419.615 371.183 419.335C372.694 418.776 374.895 417.977 377.647 417.019C383.153 415.102 390.866 412.55 399.694 410.006C417.365 404.913 439.458 399.867 457.265 399.992Z" fill="#5F9E82" stroke="#5F9E82"/>
<path d="M389.451 413.102C404.543 418.276 431.348 427.38 451.446 433.687C471.77 440.063 492.911 432.169 504.096 426.652C503.844 432.205 501.234 437.809 495.265 442.391C488.987 447.208 478.978 450.908 464.076 452.169C447.498 453.572 425.012 453.968 406.66 454.012C397.487 454.034 389.351 453.968 383.508 453.896C380.586 453.861 378.238 453.824 376.62 453.796C375.812 453.782 375.185 453.77 374.762 453.762C374.678 453.76 374.602 453.758 374.534 453.757L369.227 420.067C369.229 420.067 369.231 420.066 369.233 420.065C369.487 419.969 369.863 419.827 370.353 419.644C371.332 419.277 372.768 418.748 374.591 418.097C378.205 416.805 383.339 415.034 389.451 413.102Z" fill="#5F9E82" stroke="#5F9E82"/>
<path d="M439.83 412.04C439.761 413.982 438.189 415.534 436.245 415.579L393.096 416.571L388.886 413.283C402.907 408.831 422.253 403.471 440.224 401.153L439.83 412.04Z" fill="#5F9E82" stroke="#5F9E82"/>
<path d="M332.092 327.916H436.04C439.372 327.916 442.001 330.75 441.75 334.073L436.313 405.981C436.087 408.968 433.599 411.275 430.604 411.275H337.528C334.534 411.275 332.045 408.968 331.818 405.981L326.383 334.073C326.132 330.751 328.76 327.916 332.092 327.916Z" fill="#252F29" stroke="#5F9E82"/>
<path d="M382.143 361.422C386.637 360.361 391.141 363.144 392.202 367.638C393.263 372.133 390.48 376.636 385.986 377.697C381.492 378.758 376.988 375.976 375.926 371.482C374.865 366.987 377.649 362.483 382.143 361.422Z" fill="#5F9E82" stroke="#5F9E82"/>
<path d="M410.197 310.961C413.884 310.961 416.872 313.949 416.872 317.636C416.872 321.322 413.884 324.311 410.197 324.311C406.511 324.31 403.522 321.322 403.522 317.636C403.523 313.949 406.511 310.961 410.197 310.961Z" fill="#2E2854" stroke="#5F9E82"/>
<path d="M410.198 313.062C412.723 313.063 414.771 315.11 414.771 317.636C414.771 320.161 412.723 322.209 410.198 322.209C407.672 322.209 405.625 320.161 405.625 317.636C405.625 315.11 407.672 313.062 410.198 313.062Z" fill="#5F9E82" stroke="#5F9E82"/>
<path d="M408.461 315.163C409.226 315.163 409.845 315.783 409.845 316.547C409.845 317.311 409.226 317.931 408.461 317.931C407.697 317.931 407.078 317.311 407.078 316.547C407.078 315.783 407.697 315.163 408.461 315.163Z" fill="white" stroke="#5F9E82"/>
<path d="M411.654 320.966V333.674C411.654 334.479 411.002 335.131 410.197 335.131C409.393 335.131 408.74 334.478 408.74 333.674V320.966H411.654Z" fill="#5F9E82" stroke="#5F9E82"/>
<path d="M438.701 438.979C443.031 440.444 446.551 441.504 449.021 441.979C449.085 441.991 449.151 442.003 449.217 442.016L456.645 456.373L445.257 466.426H433.623L429.872 447.741L438.701 438.979Z" fill="white" stroke="#5F9E82"/>
<path d="M449.961 442.151C454.097 442.896 458.71 443.41 463.281 443.917C468.048 444.446 472.769 444.97 476.904 445.742C481.051 446.517 484.544 447.532 486.885 449.013C488.049 449.749 488.903 450.586 489.42 451.542C489.933 452.49 490.131 453.59 489.931 454.893C489.524 457.535 487.902 459.583 485.309 461.181C482.704 462.785 479.151 463.912 474.978 464.695C466.682 466.252 456.096 466.424 446.032 466.426L449.961 442.151Z" fill="#252F29" stroke="#5F9E82"/>
<path d="M268.657 400.22C277.006 395.751 291.58 393.753 315.688 396.576C336.211 398.98 360.374 407.335 382.683 416.211C404.736 424.985 425.025 434.287 438.033 438.752C437.556 443.767 436.245 454.088 432.833 466.427H367.799C346.581 466.427 319.784 459.486 298.041 450.013C287.172 445.277 277.59 439.92 270.612 434.499C267.124 431.789 264.298 429.072 262.289 426.421C260.278 423.767 259.106 421.207 258.873 418.804C258.52 415.157 258.906 411.62 260.398 408.449C261.888 405.285 264.497 402.447 268.657 400.22Z" fill="#5F9E82" stroke="#5F9E82"/>
<path d="M276.499 261.347C276.499 261.347 281.979 309.888 317.583 322.466" stroke="#5F9E82" stroke-miterlimit="10" stroke-linecap="round" stroke-linejoin="round"/>
<path d="M505.611 261.347C505.611 261.347 499.712 313.915 455.988 320.48" stroke="#5F9E82" stroke-miterlimit="10" stroke-linecap="round" stroke-linejoin="round"/>
<path d="M689.506 229.85C691.139 229.85 692.462 228.526 692.462 226.893C692.462 225.261 691.139 223.938 689.506 223.938C687.874 223.938 686.55 225.261 686.55 226.893C686.55 228.526 687.874 229.85 689.506 229.85Z" stroke="#5F9E82" stroke-miterlimit="10" stroke-linecap="round" stroke-linejoin="round"/>
<path d="M675.8 449.719C677.433 449.719 678.756 448.395 678.756 446.763C678.756 445.13 677.433 443.807 675.8 443.807C674.168 443.807 672.844 445.13 672.844 446.763C672.844 448.395 674.168 449.719 675.8 449.719Z" stroke="#5F9E82" stroke-miterlimit="10" stroke-linecap="round" stroke-linejoin="round"/>
<path d="M670.648 298.1C672.281 298.1 673.604 296.777 673.604 295.144C673.604 293.512 672.281 292.188 670.648 292.188C669.016 292.188 667.692 293.512 667.692 295.144C667.692 296.777 669.016 298.1 670.648 298.1Z" stroke="#5F9E82" stroke-miterlimit="10" stroke-linecap="round" stroke-linejoin="round"/>
<path d="M217.537 430.38C219.17 430.38 220.493 429.056 220.493 427.424C220.493 425.791 219.17 424.468 217.537 424.468C215.905 424.468 214.581 425.791 214.581 427.424C214.581 429.056 215.905 430.38 217.537 430.38Z" stroke="#5F9E82" stroke-miterlimit="10" stroke-linecap="round" stroke-linejoin="round"/>
<path d="M45.8261 330.117C47.4587 330.117 48.7821 328.794 48.7821 327.161C48.7821 325.529 47.4587 324.205 45.8261 324.205C44.1936 324.205 42.8701 325.529 42.8701 327.161C42.8701 328.794 44.1936 330.117 45.8261 330.117Z" stroke="#5F9E82" stroke-miterlimit="10" stroke-linecap="round" stroke-linejoin="round"/>
<path d="M366.113 92.2313C367.746 92.2313 369.069 90.9079 369.069 89.2753C369.069 87.6428 367.746 86.3193 366.113 86.3193C364.481 86.3193 363.157 87.6428 363.157 89.2753C363.157 90.9079 364.481 92.2313 366.113 92.2313Z" stroke="#5F9E82" stroke-miterlimit="10" stroke-linecap="round" stroke-linejoin="round"/>
<path d="M110.621 250.711C112.254 250.711 113.577 249.387 113.577 247.755C113.577 246.122 112.254 244.799 110.621 244.799C108.988 244.799 107.665 246.122 107.665 247.755C107.665 249.387 108.988 250.711 110.621 250.711Z" stroke="#5F9E82" stroke-miterlimit="10" stroke-linecap="round" stroke-linejoin="round"/>
<path d="M414.263 177.208C422.14 177.208 428.526 170.822 428.526 162.945C428.526 155.067 422.14 148.682 414.263 148.682C406.386 148.682 400 155.067 400 162.945C400 170.822 406.386 177.208 414.263 177.208Z" stroke="#5F9E82" stroke-miterlimit="10" stroke-linecap="round" stroke-linejoin="round"/>
<path d="M689.506 402.573C697.383 402.573 703.769 396.187 703.769 388.31C703.769 380.433 697.383 374.047 689.506 374.047C681.629 374.047 675.243 380.433 675.243 388.31C675.243 396.187 681.629 402.573 689.506 402.573Z" stroke="#5F9E82" stroke-miterlimit="10" stroke-linecap="round" stroke-linejoin="round"/>
<path d="M71.5181 466.927H708.778" stroke="#5F9E82" stroke-miterlimit="10" stroke-linecap="round" stroke-linejoin="round"/>
</g>
<defs>
<clipPath id="clip0_2969_65">
<rect width="750" height="500" fill="white"/>
</clipPath>
</defs>
</svg>
